
<svg xmlns="http://www.w3.org/2000/svg" viewBox="0 0 55 55">
<style type="text/css">
	.st0{fill:#DEDAD1;}
	.st1{fill:#EFEEED;}
	.st2{fill:#978A94;}
	.st3{fill:#040404;}
	.st4{fill:#AFAEAE;}
	.st5{fill:#897C69;}
	.st6{fill:#554747;}
	.st7{fill:#080904;}
	.st8{fill:#8E8D8D;}
	.st9{fill:#D8C198;}
	.st10{fill:#AD936E;}
	.st11{fill:#DBC19C;}
	.st12{fill:#958160;}
	.st13{fill:#E6D5B9;}
	.st14{fill:#D6C09B;}
	.st15{fill:#CBB38D;}
	.st16{fill:#B89F77;}
	.st17{fill:#9A825E;}
	.st18{fill:#F3DDB6;}
	.st19{fill:#B79A6E;}
	.st20{fill:#917448;}
	.st21{fill:#B6A281;}
	.st22{fill:#705D3F;}
	.st23{fill:#BFA785;}
	.st24{fill:#E3C89D;}
	.st25{fill:#EFD8AE;}
	.st26{fill:#D8BF96;}
	.st27{fill:#816A4A;}
	.st28{fill:#D1B68B;}
	.st29{fill:#AA926C;}
	.st30{fill:#7B6445;}
	.st31{fill:#D1B58E;}
	.st32{fill:#886F50;}
	.st33{fill:#B19975;}
	.st34{fill:#836A4B;}
	.st35{fill:#A48D6B;}
	.st36{fill:#675338;}
	.st37{fill:#C6AC87;}
	.st38{fill:#DCBF95;}
	.st39{fill:#F7DDB8;}
	.st40{fill:#9C8661;}
	.st41{fill:#876D4A;}
	.st42{fill:#947C58;}
	.st43{fill:#7C6B4F;}
	.st44{fill:#98815F;}
	.st45{fill:#755E3F;}
	.st46{fill:#BCA27D;}
	.st47{fill:#5B4933;}
	.st48{fill:#665537;}
	.st49{fill:#AD9677;}
	.st50{fill:#D1BB96;}
	.st51{fill:#C7AB7C;}
	.st52{fill:#69583E;}
	.st53{fill:#A28C67;}
	.st54{fill:#836F4A;}
	.st55{fill:#88724D;}
	.st56{fill:#A59478;}
	.st57{fill:#8A724E;}
	.st58{fill:#AC926D;}
	.st59{fill:#7F6B4A;}
	.st60{fill:#A78F6D;}
	.st61{fill:#C4A881;}
	.st62{fill:#806748;}
	.st63{fill:#CDB589;}
	.st64{fill:#8D744C;}
	.st65{fill:#DFC7AF;}
</style>
<g id="eyes">
	<path class="st0" d="M24.6,24.3c1.1,1.2,2.5,2,3.9,1.9c1.4-0.1,2.7-0.7,3-1.1c0.1-2-1.5-2.9-3-2.8C26.4,22.3,25.1,23.7,24.6,24.3z"
		/>
	<path class="st1" d="M28,22.5c-1.6,0.6-1.6,2.7-0.4,3.4c-1.1-0.2-1.1-2-1-2.3S25.3,23.7,25,24C26.6,22.6,27.2,22.6,28,22.5z"/>
	<path class="st2" d="M29.1,22.5c-1-0.2-2.2,0.2-2.3,1.8c-0.1,1.6,1.5,1.7,2.5,1.5c1-0.2,1.3-0.9,1.3-1.8
		C30.7,23.7,30.4,22.7,29.1,22.5z"/>
	<path class="st3" d="M29.2,23.5c-0.9-0.2-1.3,0.7-1.1,1.3c0.3,0.6,1.1,0.9,1.5,0.3C30.1,24.5,30.1,23.7,29.2,23.5z"/>
	<path class="st4" d="M30,23.6c-0.2-0.4-0.4,0.1-0.2,0.3C30,24.2,30.2,24.1,30,23.6z"/>
	<path class="st5" d="M39.3,25.5c1.7,1.2,2.6,1.4,3.6,1.2c1-0.2,1.6-1.5,1.6-2c0.1-1.1-0.8-1.5-1.8-1.4c-1,0.1-1.9,0.6-2.4,1.3
		C40,24.9,39.5,25.3,39.3,25.5z"/>
	<path class="st6" d="M41.9,23.4c-0.8,0.2-1.2,0.8-1.1,2c0.1,1.2,1.5,1.2,1.7,1.2c0.2,0,1.4-0.3,1.5-1.8S42.4,23.3,41.9,23.4z"/>
	<path class="st7" d="M42.9,24.2c-0.3,0-0.9,0.4-0.9,1.1s0.1,1,0.5,0.9c0.4-0.1,1-0.6,0.9-1.2C43.4,24.3,43.1,24.2,42.9,24.2z"/>
	<path class="st8" d="M43.5,24.4c-0.1-0.2-0.4,0.1-0.2,0.3S43.6,24.7,43.5,24.4z"/>
</g>
<g>
	<path class="st9" d="M18.1,23.8c0.7-0.2,3.7-3.7,5-4.5c1.4-0.8,2.1-1.7,2.2-1.9c0.1-0.2,2.6-15.3,2.7-16c-2.1,0-13.2,0.3-13.6,0.4
		c-0.9,2.4-3.8,12.6-3.8,13.3C11.3,16.3,17,22.6,18.1,23.8z"/>
	<path class="st10" d="M28,1.4C33.3,2,45.1,5,46.6,5.2c-1.2,5.6-5.4,12.7-5.7,13.2c-0.9-1.4-3.6-1.4-4.3-0.7
		c-3.1-0.4-10-0.1-11.3-0.4C26.1,12.9,27.8,2.8,28,1.4z"/>
	<path class="st11" d="M10.4,16.5c0-0.6-1.5-1.3-2.1-1.2c-0.6,0.1-1.6,3.3-1.4,7.4C7,26.7,7.2,28.2,8.3,28
		C9.7,27.7,10.4,18.6,10.4,16.5z"/>
	<path class="st12" d="M48.1,19.8c-1.5-0.5-5.7-1.3-7.2-1.3c2.1-3.9,5.4-11,5.7-13.2C47.5,10.8,48.3,18.4,48.1,19.8z"/>
	<path class="st13" d="M13.2,2.4c0.5-0.3,0.8-0.6,1.2-0.6c-1.5,4.9-3.6,12.1-3.8,13.3c1.3,1.7,6.7,7.9,7.5,8.6c-0.6,0-1.3,0-1.7,0
		c-4-5-4.8-6-5.5-6.8c-0.4-0.5-0.8-0.9-1.3-0.9c-0.2-0.3-0.9-0.9-1.4-0.8c1,0,0.8-0.4,1-0.6C9.8,12,12.6,4.3,13.2,2.4z"/>
	<path class="st14" d="M17.2,24.8"/>
	<path class="st14" d="M10.4,16.4c1.3,1.1,5.8,7,6,7.4c0.2,2,2.3,14.4,2.8,15.8c-0.1,1.6-0.3,5.8-0.2,6.6c-1.8-1.5-4.2-5.3-5-5.8
		c-1.8-3.3-3.4-7.4-3.5-8c-0.1-0.5-0.4-3.3-0.6-3.7c0.3-1.3,0.8-7.4,0.7-9.1C10.5,17.9,10.5,16.7,10.4,16.4z"/>
	<path class="st15" d="M19.2,39.6c1.4-2.4,3.9-7.2,4.1-8c-1.6-1.7-6.1-7.2-6.9-7.8C16.7,27.7,18.7,37.6,19.2,39.6z"/>
	<path class="st16" d="M9.7,16.1c0.2,0,0.7,0.3,0.9,0.5c0.2,0.2,0,9.7-0.7,12.3C9.4,28.2,8.6,28,8.3,28C9.1,27,10.6,23.8,9.7,16.1z"
		/>
	<path class="st17" d="M9.1,17.5c-0.5-0.3-1.4,0.1-1.3,5.1c-0.2-1.3-0.5-1.8-0.6-2C7.2,18.5,8.1,15.4,9.1,17.5z"/>
	<path class="st18" d="M8.5,25.3c0,1-0.4,1.1-0.7,1S7,24.7,7.1,22.9c0.5,2.5,0.7,1.6,0.7,1.4C7.8,25.5,8.3,26.3,8.5,25.3z"/>
	<path class="st19" d="M8.9,17.9c0.1-0.2-0.2,0.5-0.1,0.6C9,18.6,8.9,18.1,8.9,17.9z"/>
	<path class="st20" d="M8.8,19c0.1-0.2-0.3-0.6-0.3,0.1S8.6,19.8,8.8,19z"/>
	<path class="st20" d="M9.1,19.3c0-0.4-0.2-0.5-0.2,0C8.9,19.8,9.1,20,9.1,19.3z"/>
	<path class="st20" d="M8.8,20.4c0-0.6-0.1-0.6-0.1,0.1C8.6,21.1,8.8,21.2,8.8,20.4z"/>
	<path class="st20" d="M8.2,20.2c0-0.8,0.2-0.4,0.2,0.1S8.2,21.2,8.2,20.2z"/>
	<path class="st20" d="M8.9,21.7c0,0.5-0.2,0.6-0.2-0.1C8.7,20.9,8.9,21.1,8.9,21.7z"/>
	<path class="st20" d="M8.2,21.4c0-0.7,0.2-0.5,0.2,0.1S8.1,22.1,8.2,21.4"/>
	<path class="st20" d="M8.3,22.5c0-0.6,0.2-0.4,0.2,0.1S8.3,23.5,8.3,22.5z"/>
	<path class="st20" d="M8.5,23.8c0-0.4,0.2-0.4,0.2,0.1C8.7,24.4,8.5,24.8,8.5,23.8z"/>
	<path class="st20" d="M8.1,23.7c0-0.8,0.2-0.4,0.2,0.1C8.3,24.3,8.1,24.1,8.1,23.7z"/>
	<path class="st21" d="M45.6,23.9c-0.1,0.6-0.4,1.3-0.4,1.5c0.6-0.4,0.9-0.2,1.2,0C46.2,24.7,45.8,24.2,45.6,23.9z"/>
	<path class="st22" d="M19,46.2c-0.2-1.4,0-5.9,0.2-6.6c0.2-0.7,3.8-7.3,4.2-7.8c2.8-0.3,8.1-1.6,8.6-1.8c-0.7,1-0.6,1.8-0.4,2
		c-1.4,0.5-1.7,1.6-1.6,1.9c-6-3.5-7.8,5.7-6.6,6.9C21.4,42.3,19.4,44.7,19,46.2z"/>
	<path class="st23" d="M19,46.2c0.1-1.6,2.4-4.2,4.4-5.4c-0.4,2.7,0.3,5.3,2.5,6.6c2.2,1.3,4,0.9,4.3,0.7c-0.3,1.2,0,2.5,0.5,2.8
		c-1.9,0.4-5.4-0.6-6.4-1.2S20.1,47.2,19,46.2z"/>
	<path class="st24" d="M16.4,23.8c0.6,0,1.2,0,1.7,0c0.7-0.6,1-0.8,1.3-1.1c0.3,2.2,4.7,6,8.3,5.7s3.8-1.7,4.3-2s1.4,0,1.8-0.3
		c0.4-0.3,2.8-4.6,3.1-5.3c-0.4,4.8-0.9,7.2-0.3,9s1.3,4.9,1.6,5.5c-1.7-1-4.8-3-6.5-3.3c-0.2-0.6,0.1-1.6,0.4-2
		c-1.1,0.6-7.6,1.8-8.6,1.8C21.4,29.6,17.1,24.3,16.4,23.8z"/>
	<path class="st25" d="M38.1,35.3c-2.6-1.4-5.1-2.4-6.3-2.1c-1.2,0.3-1.3,1.5-0.6,2.8c-1.7-0.9-2.4-3.1,0.4-4
		C34.8,32.7,37.4,34.9,38.1,35.3z"/>
	<path class="st26" d="M31.2,36c1.7-0.6,3.5,0.7,6.3,1.8c0-1.4,0.2-2.2,0.6-2.5c-1.6-0.9-4.7-2.4-6.3-2.1C30,33.5,30.8,35.7,31.2,36
		z"/>
	<path class="st27" d="M38.1,35.3c1,0,2.1-0.1,2.3,0c-0.1,1.4-0.7,2.1-1,2.4c-0.3,0.2-1.5,0.2-1.9,0.1
		C37.3,36.3,37.9,35.6,38.1,35.3z"/>
	<path class="st28" d="M38.1,35.3c-0.5-1.5-1.5-5.1-1.9-6.8c-0.1-1.1,0.3-4.5,0.4-5c0.6,5.1,0.8,5,1.6,5.1c0.6,2.2,2,6.3,2.3,6.8
		C39.5,35.1,38.6,35.2,38.1,35.3z"/>
	<path class="st29" d="M45.2,25.5c0-0.3,1-0.2,1.2,0c0.2,2.5-0.8,6.2-1,6.7c-1-0.2-4-1.3-4.5-1.5c2-0.5,2.6-1.2,2.7-1.8
		C44.3,28,45.1,26,45.2,25.5z"/>
	<path class="st30" d="M40.9,30.7c1.4,0.4,3.8,1.3,4.5,1.5c-0.1,3.4-2,7.5-4.9,10.2c1.4-2.9,3-5.9,3-7.7c-0.1-0.4-1.2-2-2.3-1.5
		C41.4,31.7,41.5,31.4,40.9,30.7"/>
	<path class="st31" d="M30.1,48.1c0.3-1.2,1-2,1.3-2.3c-0.3-0.5-3.1-0.1-3.7-0.2c-0.6-0.1-2.8-1.3-3-1.8c-0.4,0.5-1.1,0.7-1.5-0.7
		C23.7,47,27.1,48.9,30.1,48.1z"/>
	<path class="st32" d="M23.4,40.8c0.6-0.6,1.1-1.3,1.5-1.4c0.5-0.1,1.3-0.1,0.9,0.3s-1.3,1.6-1.2,2.4c0.1,0.8,0.6,1.2,0.2,1.8
		c-0.4,0.6-1.2,0.7-1.5-0.7C23,41.6,23.3,41.1,23.4,40.8z"/>
	<path class="st33" d="M30.1,48.1c0.5-0.8,0.8-0.8,0.8-0.1c0,0.8,2,0.9,2.5,0.2c0.5-0.7,1.1-1.4-2-2.5
		C30.6,46.6,30.2,47.7,30.1,48.1z"/>
	<path class="st34" d="M30.6,51c1.8,0.5,5.7-0.5,6.2-1.3c0.5-0.8,1.8-2.5,1.9-3.1c-1.5,1.8-2.2,1.1-2.2,0.3c0-0.8,0.2-1.7,0.4-1.8
		c-1.3-0.1-4-0.4-5.4,0.7c1.6,0.6,2.6,1.1,2.1,2.3c-0.4,0.9-2.4,0.7-2.6,0.2c-0.2-0.5-0.4-1.7-0.9-0.2C29.6,49.7,30.3,50.7,30.6,51z
		"/>
	<path class="st35" d="M36.9,45.1c0.4,0.5,1.4-0.4,1.7-1.6c0.4,0.7,1.5-0.3,1.9-1.2c-1.2,2.4-1.5,3.4-1.9,4.2
		c-0.4,0.8-1.4,1.2-1.9,1.1C36.4,47.5,36.2,46,36.9,45.1z"/>
	<path class="st36" d="M38.6,43.5c-0.6,1.9-1.3,1.8-1.7,1.6c-1.2,0-4.2-0.5-5.4,0.7c-1.1-0.2-2.4-0.5-3.5-0.1
		c-1.7-0.4-0.8-0.6,0-0.6s1.5-0.4,1.5-0.9c2,0,2.7,0.1,3.4,0c0.6-0.2,1.6-0.7,2.8-0.6C36.9,43.6,37.8,44,38.6,43.5z"/>
	<path class="st37" d="M29.5,44.2c-0.8,0.1-3.2,0-3.5-0.9c-0.1,0.6-0.6,0.6-1.1,0.5c0.7,1.2,2.2,1.6,3,1.8c-0.9-0.7,0.8-0.4,1.2-0.7
		C29.4,44.6,29.5,44.5,29.5,44.2z"/>
	<path class="st38" d="M25.9,43.3c1.9,0.4,4.6-0.6,5.6-1.1c0.9-0.5,2.8-0.1,3.3,0.2c-1.5,0.3-1.3,1.3-0.6,1.3
		c-1.2,0.7-3.7,0.4-4.7,0.4S26.3,44.3,25.9,43.3z"/>
	<path class="st39" d="M31.8,42.1c-1.3,0-4.9,1-5.7,1s-0.6,0.1-0.2,0.3C26.3,43.5,28.6,43.6,31.8,42.1z"/>
	<path class="st40" d="M34.2,43.8c0.5,0.1,0.7-0.3,1.6-0.2c0.9,0.1,1.2,0.3,1.9,0.2c-1.8-0.6-2.4-1.3-2.9-1.3
		C33.5,42.5,33.3,43.6,34.2,43.8z"/>
	<path class="st41" d="M25.6,43c1.7-1,3.7-1.5,4.4-1.7s3.9-1.4,4.9-1.1c0.8,0.4,1.7,0.5,2.5,0c1.8,0.1,2.1,0.9,2,1.1
		c-0.4,0.2-0.5,0.9-0.6,1.3c-0.3-1.3-1.2-1.5-2-1.3c-0.8,0.1-2.2,0.3-3.1,0.1c-0.9-0.2-3.8,1.1-4.7,1.2C28.2,42.7,26.7,43.1,25.6,43
		z"/>
	<path class="st42" d="M28,42.7c2.3-0.1,4.5-1.1,6.1-0.5c1.7,0.5,2.6,1.6,3.2,1.6s2-0.1,1.6-1.3c-0.3-1.2-1.5-1.3-2.1-1.2
		c-0.6,0.1-1.7,0.3-3.1,0.1C32.6,41.2,29.8,42.5,28,42.7z"/>
	<path class="st43" d="M39.5,41.3c-0.4,0.3-0.9,2-0.9,2.3c0,0.3,1.2,0.5,1.9-1.2c0.8-1.7,2.7-4.9,2.9-6.3c0.2-1.4,0.3-3.3-2.2-2.9
		C41,34.8,41,36,40.8,36.3c-0.2,0.3-0.8,1.2-1.3,1.4c-0.5,0.1-1.5,0.2-1.9,0.1c-0.4,0.7-0.3,2-0.1,2.3
		C38.7,40.2,39.3,40.7,39.5,41.3z"/>
	<path class="st44" d="M35.1,38.5c1.2,1,1.8,1.4,2.3,1.6c-0.8,0.7-2.2,0.3-2.7,0C35,39.6,35.2,38.8,35.1,38.5z"/>
	<path class="st45" d="M37.5,40.1c-1-0.4-1.9-1.3-2.3-1.6c-0.8-0.1-3.7-2.1-3.9-2.6c1.2-0.2,2.7,0.2,3.8,0.7s1.7,1,2.6,1.1
		C37.1,38.7,37.3,39.8,37.5,40.1z"/>
	<path class="st46" d="M35.1,38.5c-1.3-0.4-3.4-2.1-4-2.6c-0.2-0.3-1.2-0.8-1.3-2.2c-2.4-1.4-4.4-0.6-5.7,1.3
		c-1.3,1.8-1.2,5.2-0.8,5.7c0.6-0.7,1.8-1.8,2.5-1.3c-1.4,1.3-1.4,2.6-1.1,3.2s0.2,0.8,0.1,1.1c0.8,0.2,1.2-0.1,1.1-0.5
		c-0.7-0.5,1.1-0.8,2.1-1.2c1-0.4,5.8-2.2,6.8-2C35.1,39.6,35.2,38.9,35.1,38.5z"/>
	<path class="st47" d="M35.4,50.4c-2.2,1.2-5.3,1.5-6,1.4c-0.7-0.1-3.4-0.3-4-0.7c-0.6-0.4-4.3-3-5.5-4.1c5,3.6,8.9,3.9,10.7,3.9
		C32.3,51,34.3,51,35.4,50.4z"/>
	<path class="st48" d="M31.4,51.7c0,1-2.8,1.7-3.2,1.8c-0.5,0.1-3.4-0.1-4.3-0.3c-0.9-0.2-8.4-4.2-8.9-4.5c3.4,1,8.7,4.3,9.4,4.2
		c0.7-0.1,2.5-0.6,2.3-1c-0.2-0.3-2.4-1.2-3.8-2.7C25.9,51.6,27.8,52.1,31.4,51.7z"/>
	<path class="st49" d="M14.9,48.8c1.9,0.7,8.3,4,9.4,4.2c0.9,0,2.3-0.6,2.3-1c0-0.4-3.1-1.8-4.8-3.4s-3.4-2.7-5.5-5.4
		c-1.2-1.6-1.9-2.3-2.3-2.8c-0.4-0.5-3.5-7.5-3.6-8.4c-0.7,2.2-1,6.2-0.2,7.8c0.8,1.6,2.7,3.9,2.9,4.7
		C13.4,45.3,14.3,48.3,14.9,48.8z"/>
	<path class="st50" d="M10.3,31.2c0,0.3,0.1,0.5,0.1,0.8c-0.3,0.6-0.8,4.9-0.7,5.7c0.1,0.8,0.1,2.1,0.8,3.2c0.7,1.1,2,3.2,2.2,4
		c0.2,0.8,1.3,3.5,1.7,3.7c-1-0.1-4.5-3.9-4.7-4.4c-0.2-0.5-1.1-3.1-1-3.9c0-0.8,0.8-5.5,0.7-6.4C9.3,33.2,10.1,31.7,10.3,31.2z"/>
	<path class="st51" d="M14.4,48.6c0.2,0,0.2,0.1,0.6,0.2c-0.7-1.1-1.6-3.4-1.8-4.3s-2.1-3.3-2.4-3.8c-0.4-0.7-0.9-1.4-1-4.2
		c0,1.8,0,2.5,0.5,3.7c0.6,1.5,1.9,3.4,2.1,3.7C12.6,44.4,13.5,47.8,14.4,48.6z"/>
	<path class="st23" d="M23.4,40.8c0.9-0.7,1.5-2,2.4-2.3c1-0.2,2.8-0.6,2.8-1.5s-2.1-0.6-2.5-1.1c-0.3-0.5-2.4-0.7-2.8,0.8
		C23,38.4,22.9,40.1,23.4,40.8z"/>
	<path class="st52" d="M48.1,19.8c-1,1.1-3,3.2-3.3,3.6c-0.4-1-1-1.3-1.7-1.4c-0.7,0-3.2,0.8-4.1,3.5c-0.1-2,1.4-3.9,1.5-4.7
		c0.1-0.8,0.5-1.9,0.3-2.3C43.4,18.5,47.7,19.6,48.1,19.8z"/>
	<path class="st53" d="M47.1,20.9c-1.2,2-1.5,2-1.5,3c-0.3,1.7-0.5,2.1-0.8,2.7c-0.2,0.6-1.2,2.7-1.9,3.2s-0.8,0.6-1.4,0.6
		c0,0-0.7,0.3-0.3,1.1c0.4,0.7-0.3,3.4-0.4,4.3c-0.1,0.9-0.8,1.6-1.2,1.7c0.7-0.9,0.8-1.6,0.8-2.2c-0.4-1.3-2.1-5.9-2.3-6.8
		c0.7-0.4,1.1-0.7,1.2-1.5c0.1-0.8,2.3,1.7,2.9,1.8c0.6,0.1,0.9,0.2,1.1-0.8c0.2-1.1,1.1-2.6,1.1-3c0-0.4,0.3-1.3,0.2-1.7
		C45.6,22.7,47.1,20.9,47.1,20.9z"/>
	<path class="st54" d="M44,26.4c-0.2,1.3-0.3,2.5-1.1,2.5c-0.7,0.1-1.2-0.4-1.9-1c-0.8-0.6-0.7-0.9-1.3-0.9c1.3,0.4,1.5-0.1,1.1-0.7
		C42,27.2,43.6,27.2,44,26.4z"/>
	<path class="st55" d="M44.5,25.3c0.5-0.7,0.4-2.3-0.1-2.8c-0.5-0.6-1.9-1-3.6,0.4c-1.7,1.4-1.7,2.5-1.8,2.8
		c0.7-0.4,1.7-1.9,2.3-2.1S44.9,22.4,44.5,25.3z"/>
	<path class="st56" d="M44.3,23.9c0.1,1.9-0.7,2.6-1.5,2.7s-1.5,0.1-2.1-0.3c1,0.8,2.5,1.1,3.2,0.1C44.8,25.3,44.5,24.2,44.3,23.9z"
		/>
	<path class="st57" d="M40.7,26.3c-0.6-0.3-0.9-0.6-1.2-0.6s-0.3-0.3-0.1-0.4c-0.7,0.2-0.6,1-0.9,0.6c-0.2-0.4-0.5,2-0.4,2.6
		c1.3-0.6,1.1-1.6,1.7-1.5C40.5,27.2,41.1,27.2,40.7,26.3z"/>
	<path class="st58" d="M36.9,20.8c0.7,2.9,1.3,4.1,1.5,3.3c0,3.3-0.1,4-0.2,4.4c-1.3,0.5-1.5-3.6-1.6-5.1
		C36.6,22,36.8,21.1,36.9,20.8z"/>
	<path class="st59" d="M40.9,18.5c-0.1,2.7-1.8,5.6-1.9,7.2c-0.3,0.7-0.8,1.8-0.6-0.4c0.1-1.1,0.1-0.7-0.3-1.1s-0.9-2.6-1.2-3.4
		c-0.7,1.4-1.4,2.5-1.9,3.3c-0.5,0.9-0.7,1.8-1.2,2c-0.5,0.2-1.5,0.3-1.7,0c0.5-1.2,0.7-4.3-1.4-5c-2.1-0.6-4.3,0.2-5.1,0.6
		s-2.2-0.4-2.2-1.4c0-1-1.5-0.2-2.3,0.7c1.9-2,4-3,4.1-3.5c3.6,0.3,9.7,0.1,11.3,0.4C38.1,17.1,40.1,17.2,40.9,18.5z"/>
	<path class="st60" d="M19.4,22.7c-0.6,0.6,3.8,1.7,4.6,1.4c0-1.3,1.5-2.4,2.2-2.6c-2,0.4-2.8-0.5-2.8-1.3
		C23.3,19.3,21.9,20,19.4,22.7z"/>
	<path class="st61" d="M24,24c0.3,0.4,0.5,0.4,0.8,0.7c-0.2-0.7,1.6-2.4,3.5-2.4c0.3-0.1-0.7-0.9-2.1-0.9C24.8,21.5,24,23.4,24,24z"
		/>
	<path class="st62" d="M26.2,21.4c1.7,0.2,1.9,0.3,2.1,0.9c0.9-0.1,3.2,0.5,3.2,2.8c0.4,0.3,0.6,0.3,0.6,1c0.9-3.2-0.2-4.9-1.9-5.1
		S26.9,21.1,26.2,21.4z"/>
	<path class="st63" d="M19.4,22.7c1.5,1.3,4.1,1.4,4.6,1.4c0.3,0.6,0.6,0.5,0.8,0.3c0.5,0.9,1,1.5,2,1.6c1,0.1,0.7,2.8-1.6,2
		C23.1,27.4,19.7,25.2,19.4,22.7z"/>
	<path class="st64" d="M26.5,25.9c1.6,0.6,4.2,0.3,5-0.8c1.3,1,1,1.1,0.7,1.2c-0.2,0.1-1.1,0.9-1.4,1.2c-0.2,0.3-3.1,1.4-5.4,0.7
		C27.8,28.3,27.6,26.2,26.5,25.9z"/>
	<path class="st65" d="M29.9,25.9c-2.2-0.1-3.1,0.4-5.1-1.6C25.3,26.1,28,26.5,29.9,25.9z"/>
</g>
</svg>
