# Blender 4.1.1
# www.blender.org
mtllib piece.004.mtl
o Cube.004
v -0.497743 1.114869 -0.000000
v 0.499488 -0.373678 -1.000000
v 0.499488 -0.373678 1.000000
v -1.494974 -0.373678 -1.000000
v -1.494974 -0.373678 1.000000
v 1.489629 1.122153 -0.000000
v 0.499540 -0.371154 -1.000000
v 0.499540 -0.371154 1.000000
vn -0.0014 0.5577 -0.8301
vn -0.8308 0.5566 -0.0000
vn -0.0000 -1.0000 -0.0000
vn -0.0014 0.5577 0.8301
vn 0.8335 -0.5526 -0.0000
vn 0.9998 -0.0206 -0.0000
vt 0.375000 0.500000
vt 0.375000 0.250000
vt 0.625000 0.250000
vt 0.625000 0.750000
vt 0.375000 0.000000
vt 0.125000 0.500000
vt 0.375000 0.750000
vt 0.125000 0.750000
s 0
usemtl Material.004
f 7/1/1 4/2/1 1/3/1 6/4/1
f 5/5/2 1/3/2 4/2/2
f 4/6/3 2/1/3 3/7/3 5/8/3
f 8/7/4 6/4/4 1/3/4 5/5/4
f 7/1/5 6/4/5 8/7/5
f 3/7/6 2/1/6 7/1/6 8/7/6
