# Blender 4.1.1
# www.blender.org
mtllib piece.001.mtl
o Cube.001
v 0.000000 1.474377 0.679538
v 1.000000 -0.025623 -0.320461
v 1.000000 -0.025623 1.679539
v -1.000000 -0.025623 1.679539
v 1.000000 -0.024019 -0.324692
v -1.000000 -0.024019 -0.324692
v 0.000000 1.428664 -1.392265
v 0.000000 -1.380216 0.679539
v 0.000000 -1.320774 -1.395887
v -1.000000 -0.025761 -0.319847
v 1.000000 -0.025761 -0.319847
v 0.000000 -1.320774 -1.395887
v -1.000000 -0.025761 -0.319847
vn -0.0000 0.5547 0.8320
vn -0.0000 -0.5939 0.8045
vn -0.8299 0.5579 -0.0060
vn -0.0000 -0.5922 -0.8058
vn 0.8299 0.5579 -0.0060
vn -0.0000 0.6391 -0.7691
vn -0.0000 -0.0000 1.0000
vn -0.8014 -0.5981 -0.0087
vn 0.8017 -0.5977 -0.0089
vt 0.375000 0.750000
vt 0.625000 1.000000
vt 0.375000 1.000000
vt 0.375000 0.250000
vt 0.625000 0.500000
vt 0.375000 0.500000
vt 0.125000 0.500000
vt 0.000000 0.000000
s 0
usemtl Material.001
f 3/1/1 1/2/1 4/3/1
f 3/1/2 4/3/2 8/1/2
f 6/4/3 4/3/3 1/2/3 7/5/3
f 6/4/4 7/5/4 5/6/4
f 1/2/5 3/1/5 5/6/5 7/5/5
f 10/7/6 11/6/6 9/7/6
f 10/7/7 9/7/7 12/7/7 13/7/7
f 4/3/8 13/7/8 12/7/8 8/1/8
f 8/1/9 12/7/9 5/8/9 3/1/9
l 2 3
l 8 9
