# Blender 4.1.1
# www.blender.org
mtllib piece.002.mtl
o Cube.002
v -1.001384 1.114869 -0.000001
v -1.998616 -0.373678 -1.000000
v -1.998616 -0.373678 1.000000
v 1.004153 1.118979 -0.000001
v 2.001384 -0.369568 -1.000000
v 2.001384 -0.369568 1.000000
vn -0.8308 0.5566 -0.0000
vn -0.0008 0.5576 0.8301
vn 0.0010 -1.0000 -0.0000
vn 0.8308 0.5566 -0.0000
vn -0.0008 0.5576 -0.8301
vt 0.375000 0.000000
vt 0.625000 0.250000
vt 0.375000 0.250000
vt 0.375000 0.750000
vt 0.625000 0.750000
vt 0.375000 0.500000
s 0
usemtl Material.002
f 3/1/1 1/2/1 2/3/1
f 1/2/2 3/1/2 6/4/2 4/5/2
f 2/3/3 5/6/3 6/4/3 3/1/3
f 5/6/4 4/5/4 6/4/4
f 2/3/5 1/2/5 4/5/5 5/6/5
