# Blender 4.1.1
# www.blender.org
mtllib piece.002.mtl
o Cube.002
v -1.001384 1.114869 -0.000001
v -0.004153 -0.373678 -1.000000
v -0.004153 -0.373678 1.000000
v -1.998616 -0.373678 -1.000000
v -1.998616 -0.373678 1.000000
v 1.004153 1.118979 -0.000001
v 2.001384 -0.369568 -1.000000
v 2.001384 -0.369568 1.000000
vn -0.0000 0.5576 0.8301
vn -0.8308 0.5566 -0.0000
vn -0.0000 -1.0000 -0.0000
vn -0.0011 0.5571 0.8304
vn -0.0000 0.5576 -0.8301
vn 0.8308 0.5566 -0.0000
vn 0.0020 -1.0000 -0.0000
vn -0.0011 0.5571 -0.8304
vt 0.375000 0.750000
vt 0.625000 1.000000
vt 0.375000 1.000000
vt 0.375000 0.000000
vt 0.625000 0.250000
vt 0.375000 0.250000
vt 0.125000 0.500000
vt 0.375000 0.500000
vt 0.125000 0.750000
vt 0.625000 0.500000
vt 0.625000 0.750000
s 0
usemtl Material.002
f 3/1/1 1/2/1 5/3/1
f 5/4/2 1/5/2 4/6/2
f 4/7/3 2/8/3 3/1/3 5/9/3
f 1/2/4 3/1/4 8/1/4 6/2/4
f 4/6/5 1/10/5 2/8/5
f 7/8/6 6/11/6 8/1/6
f 3/1/7 2/8/7 7/8/7 8/1/7
f 2/8/8 1/10/8 6/10/8 7/8/8
