# Blender 4.1.1
# www.blender.org
mtllib piece.008.mtl
o Cube.008
v -0.703578 0.820246 -0.548228
v 0.296422 -0.679755 -1.548228
v 0.296422 -0.679754 0.451772
v -1.703578 -0.679755 -1.548228
v -1.703578 -0.679754 0.451772
v 1.345411 0.786672 -0.548228
v 0.296348 -0.679434 -1.548228
v 0.296348 -0.679433 0.451772
v -0.702143 0.780838 1.509734
v 0.297857 -0.678444 0.451201
v 1.346848 0.769161 1.478257
v 0.297783 -0.678332 0.451501
v 0.339444 2.277745 0.495132
vn -0.0000 0.5547 0.8321
vn -0.8321 0.5547 -0.0000
vn -0.0000 -1.0000 -0.0000
vn 0.8125 -0.5830 -0.0029
vn 0.9750 0.2223 -0.0000
vn 0.0091 -0.5830 0.8124
vn 0.0062 0.5639 -0.8258
vn -0.8286 -0.5598 -0.0092
vn -0.5266 0.3575 -0.7713
vn -0.5266 0.3576 -0.7713
vn 0.8303 0.5572 0.0042
vn 0.0159 0.5534 0.8328
vn -0.8171 0.5764 0.0116
vt 0.375000 0.750000
vt 0.625000 1.000000
vt 0.375000 1.000000
vt 0.375000 0.000000
vt 0.625000 0.250000
vt 0.375000 0.250000
vt 0.125000 0.500000
vt 0.375000 0.500000
vt 0.125000 0.750000
vt 0.000000 0.000000
vt 0.625000 0.750000
s 0
usemtl Material.009
f 3/1/1 1/2/1 5/3/1
f 5/4/2 1/5/2 4/6/2
f 4/7/3 2/8/3 3/1/3 5/9/3
f 12/1/4 2/10/4 6/11/4 11/2/4
f 3/1/5 2/8/5 7/8/5 8/1/5
f 9/2/6 10/1/6 12/1/6 11/2/6
f 4/6/7 1/5/7 13/2/7 6/11/7 7/10/7
f 1/2/8 3/1/8 10/1/8 9/2/8
f 3/1/9 8/1/10 12/1/10 10/1/10
f 11/11/11 6/11/11 13/11/11
f 9/2/12 11/2/12 13/2/12
f 1/2/13 9/2/13 13/2/13
