<svg xmlns="http://www.w3.org/2000/svg" width="0" height="0">

	<svg id="icon-logo" viewBox="0 0 100 40">
		<style type="text/css">
			.st0{fill:#0058ab;}
			.st1{fill:#fbd914;}
			.st2{fill:#0058a3;}
		</style>
		<g fill="none" fill-rule="evenodd">
		    <path class="st0" d="M99.9856687 40H0V0h100v40z"/>
		    <path class="st1" d="M2 20c0 9.8325 20.1163 18 48.0072 18C77.898 38 98 29.8325 98 20S77.8837 2 50.0072 2C22.1306 2 2 10.1675 2 20z"/>
		    <path class="st2" fill-rule="nonzero" d="M46.448 26.0047c.3153.4477.6593.8674 1.0606 1.2452H36.6874c0-.4198-.4156-1.2732-.8743-1.9447-.4586-.6716-2.9382-4.351-2.9382-4.351v5.0505c0 .4197 0 .8254.215 1.2452h-9.0152c.215-.4198.215-.8255.215-1.2452V14.0008c0-.4197 0-.8254-.215-1.2451h9.0152c-.215.4197-.215.8254-.215 1.2451v5.2465s2.8809-3.6655 3.5402-4.519c.5016-.6435 1.118-1.553 1.118-1.9726h9.4022c-.645.4197-1.3616 1.1752-1.9493 1.8747-.516.6156-3.4398 4.0992-3.4398 4.0992s4.3284 6.4497 4.9017 7.2751zm2.8378-12.0039v12.0039c0 .4197 0 .8254-.215 1.2452h17.3999v-4.0293c-.43.2098-.8457.2098-1.2756.2098h-7.324v-1.9027h7.0373v-3.05h-7.0373v-1.9166h7.324c.43 0 .8456 0 1.2756.1959v-4.0153H49.0708c.215.4337.215.8394.215 1.2591zm41.2924 12.0039c.1433.4617.387.8814.7023 1.2452h-9.4309c.043-.4198-.1146-.8255-.2866-1.2452 0 0-.1434-.3358-.344-.8254l-.086-.2099h-5.4321l-.086.2238s-.1577.4058-.301.8255c-.1433.4197-.301.8254-.2436 1.2451h-7.4387a3.6406 3.6406 0 0 0 .6737-1.2451l4.4574-12.0039c.1577-.4197.3153-.8254.258-1.2451h12.5697c-.1146.4197.1147.8254.2724 1.2451.3726.9094 4.4 11.1784 4.7154 11.9899zm-10.6348-4.0992-1.3186-3.3578c-.1147-.3077-.215-.6295-.2867-.9513a5.5011 5.5011 0 0 1-.258.9513c-.043.14-.602 1.609-1.247 3.3578h3.1103zm-60.1399-9.1498H10c.215.4197.215.8254.215 1.2451v12.0039c0 .4197 0 .8254-.215 1.2452h9.8035c-.215-.4198-.215-.8255-.215-1.2452V14.0008c0-.4197 0-.8254.215-1.2451zm67.7648 1.1472c-.043-1.0213.774-1.8747 1.8203-1.9027h.129c1.0606-.014 1.9349.7974 1.9492 1.8327v.07c.0287 1.0493-.817 1.9307-1.9062 1.9587-1.075.028-1.978-.7975-2.0066-1.8608.0143-.028.0143-.07.0143-.098zm.387 0c0 .8394.7023 1.525 1.5623 1.525s1.5622-.6856 1.5622-1.525c0-.8394-.7023-1.525-1.5622-1.525-.8313-.028-1.5336.6016-1.5623 1.413v.112zm1.1753 1.1332h-.344v-2.2944h.8743c.4157.014.731.3357.731.7415 0 .2798-.1577.5316-.4157.6715l.5017.8814h-.387l-.4587-.8114h-.5016v.8114zm0-1.1332h.473c.2293.014.43-.154.43-.3778 0-.2238-.1577-.4197-.387-.4197h-.516v.7975z"/>
		</g>
	</svg>

	<svg id="icon-play" viewBox="0 0 21 21">
		<style type="text/css">
			.st0{fill:#333;}
		</style>
		<path class="st0" d="M16.6,9.7L5.7,2.4C5,1.8,4,2.4,4,3.2v14.6c0,0.8,1,1.4,1.7,0.8l10.8-7.3C17.1,10.9,17.1,10.1,16.6,9.7"/>
	</svg>

	<svg id="icon-previous" viewBox="0 0 13 13">
		<style type="text/css">
			.st0{fill:#333;}
		</style>
		<path class="st0" d="M3.3,6.3l8.3-4.6c0.2-0.1,0.3,0,0.3,0.2v9.3c0,0.3-0.2,0.3-0.3,0.2L3.3,6.6C3.1,6.5,3.1,6.3,3.3,6.3z"/>
		<path class="st0" d="M1,9.8c0,0.3,0.3,0.5,0.5,0.5h1.2c0.3,0,0.5-0.3,0.5-0.5V3c0-0.3-0.3-0.5-0.5-0.5H1.5C1.3,2.5,1,2.8,1,3V9.8z"
			/>
	</svg>

	<svg id="icon-next" viewBox="0 0 13 13">
		<style type="text/css">
			.st0{fill:#333;}
		</style>
		<path class="st0" d="M9.7,6.7l-8.2,4.6c-0.3,0.1-0.4,0-0.4-0.2V1.9c0-0.3,0.2-0.3,0.3-0.2l8.2,4.6C9.9,6.4,9.9,6.6,9.7,6.7z"/>
		<path class="st0" d="M11.9,9.9c0,0.3-0.3,0.5-0.5,0.5h-1.2c-0.3,0-0.5-0.3-0.5-0.5V3.2c0-0.3,0.3-0.5,0.5-0.5h1.2
			c0.3,0,0.5,0.3,0.5,0.5V9.9L11.9,9.9z"/>
	</svg>

	<svg id="icon-gear" viewBox="0 0 13 13">
		<path fill="#333" d="M10.6,7c0-0.2,0-0.3,0-0.5c0-0.2,0-0.4,0-0.5l1.2-0.9c0.1-0.1,0.1-0.2,0.1-0.3l-1.1-1.9c-0.1-0.1-0.2-0.2-0.3-0.1L9,3.2 C8.7,3,8.4,2.8,8.1,2.7L7.9,1.2C7.8,1.1,7.7,1,7.6,1H5.4C5.3,1,5.2,1.1,5.1,1.2L4.9,2.7C4.6,2.8,4.3,3,4,3.2L2.6,2.7 c-0.1,0-0.3,0-0.3,0.1L1.2,4.7C1.1,4.8,1.2,5,1.3,5.1L2.4,6c0,0.2-0.1,0.4-0.1,0.5s0,0.4,0,0.5L1.3,7.9C1.2,8,1.1,8.2,1.2,8.3 l1.1,1.9c0.1,0.1,0.2,0.2,0.3,0.1L4,9.8c0.3,0.2,0.6,0.4,0.9,0.5l0.2,1.5c0,0.1,0.1,0.2,0.3,0.2h2.2c0.1,0,0.3-0.1,0.3-0.2l0.2-1.5 C8.4,10.2,8.7,10,9,9.8l1.4,0.5c0.1,0,0.3,0,0.3-0.1l1.1-1.9c0.1-0.1,0-0.3-0.1-0.3L10.6,7z M6.5,8.9c-1.3,0-2.4-1.1-2.4-2.4 s1.1-2.4,2.4-2.4s2.4,1.1,2.4,2.4S7.8,8.9,6.5,8.9z"/>
	</svg>

	<svg id="icon-mic-on" viewBox="0 0 23 23">
		<style type="text/css">
			.st0{fill:#333;}
		</style>
		<path class="st0" d="M18.1,10v1.5c0,3.4-2.6,6.2-5.9,6.6v1.5h2.9c0.4,0,0.7,0.3,0.7,0.7c0,0.4-0.3,0.7-0.7,0.7H7.8
			c-0.4,0-0.7-0.3-0.7-0.7c0-0.4,0.3-0.7,0.7-0.7h2.9v-1.5c-3.3-0.4-5.9-3.2-5.9-6.6V10c0-0.4,0.3-0.7,0.7-0.7C6,9.3,6.4,9.6,6.4,10
			v1.5c0,2.8,2.3,5.1,5.1,5.1s5.1-2.3,5.1-5.1V10c0-0.4,0.3-0.7,0.7-0.7C17.8,9.3,18.1,9.6,18.1,10z M15.2,5.6v5.9
			c0,2-1.7,3.7-3.7,3.7s-3.7-1.7-3.7-3.7V5.6c0-2,1.7-3.7,3.7-3.7S15.2,3.6,15.2,5.6z"/>
	</svg>

	<svg id="icon-mic-off" viewBox="0 0 23 23">
		<style type="text/css">
			.st0{fill:#333;}
		</style>
		<path class="st0" d="M6.5,12.8l-1.2,1.2c-0.3-0.8-0.5-1.6-0.5-2.4V10c0-0.4,0.3-0.7,0.7-0.7C6,9.3,6.4,9.6,6.4,10v1.5
			C6.4,11.9,6.4,12.4,6.5,12.8z M19.3,5.9L15.2,10v1.5c0,2-1.6,3.7-3.7,3.7c-0.4,0-0.9-0.1-1.2-0.2L9.2,16c0.7,0.4,1.5,0.6,2.3,0.6
			c2.8,0,5.1-2.3,5.1-5.1V10c0-0.4,0.3-0.7,0.7-0.7c0.4,0,0.7,0.3,0.7,0.7v1.5c0,3.4-2.6,6.2-5.9,6.5v1.5h2.9c0.4,0,0.7,0.3,0.7,0.7
			c0,0.4-0.3,0.7-0.7,0.7H7.8c-0.4,0-0.7-0.3-0.7-0.7c0-0.4,0.3-0.7,0.7-0.7h2.9V18c-1-0.1-1.9-0.4-2.7-0.9L5.2,20
			c-0.1,0.1-0.4,0.1-0.5,0l-0.9-0.9c-0.1-0.1-0.1-0.4,0-0.5L17.8,4.4c0.1-0.1,0.4-0.1,0.5,0l0.9,0.9C19.4,5.5,19.4,5.8,19.3,5.9z
			 M14.9,4.4l-7.1,7.1V5.6c0-2,1.6-3.7,3.7-3.7C13.1,2,14.4,3,14.9,4.4z"/>
	</svg>

	<svg id="icon-new-file" viewBox="0 0 17 17">
		<polygon fill="#333" points="3,2 3,15 14,15 14,7 8.9,7 8.9,2 "/>
		<polygon fill="#333" points="9.7,6.3 13.9,6.3 9.7,2.1 "/>
	</svg>

	<svg id="icon-folder-open" viewBox="0 0 17 17">
		<path fill="#333" d="M16,9.5c0,0.2-0.1,0.4-0.2,0.5L13.1,13c-0.5,0.5-1.4,1-2.1,1H2.3c-0.3,0-0.7-0.1-0.7-0.4c0-0.2,0.1-0.4,0.2-0.5L4.5,10
			C5,9.4,5.9,9,6.6,9h8.7C15.6,9,16,9.1,16,9.5z M13.2,6.4V8H6.6c-1,0-2.2,0.6-2.9,1.3L1,12.4c0-0.1,0-0.1,0-0.2l0-7.7
			C1,3.5,1.3,3,2.3,3h3.5c1,0,1.4,0.3,1.4,1.3V5h4.7C12.8,5,13.2,5.4,13.2,6.4z"/>
	</svg>

	<svg id="icon-clipboard" viewBox="0 0 17 17">
		<path fill="#333" d="M14.6,2.9h-4.2c0-1-0.8-1.9-1.9-1.9S6.6,1.8,6.6,2.9H2.4c-0.3,0-0.5,0.2-0.5,0.5v12.2c0,0.3,0.2,0.5,0.5,0.5h12.2
			c0.3,0,0.5-0.2,0.5-0.5V3.3C15.1,3.1,14.9,2.9,14.6,2.9z M8.5,1.9c0.5,0,0.9,0.4,0.9,0.9S9,3.8,8.5,3.8S7.6,3.4,7.6,2.9
			S8,1.9,8.5,1.9z M14,15H3V4h1.7v1.5C4.7,5.8,5,6,5.2,6h6.6c0.3,0,0.5-0.2,0.5-0.5V4H14V15z"/>
		<path fill="#333" d="M7.6,13.6l-3-3.5l0.9-0.9l2.2,1.7l4-3.6l0.9,0.9L7.6,13.6z"/>
	</svg>

</svg>