<svg xmlns="http://www.w3.org/2000/svg" width="0" height="0">

	<svg id="icon-logo" viewBox="0 0 100 40">
		<style type="text/css">
			.st0{fill:#0058ab;}
			.st1{fill:#fbd914;}
			.st2{fill:#0058a3;}
		</style>
		<g fill="none" fill-rule="evenodd">
		    <path class="st0" d="M99.9856687 40H0V0h100v40z"/>
		    <path class="st1" d="M2 20c0 9.8325 20.1163 18 48.0072 18C77.898 38 98 29.8325 98 20S77.8837 2 50.0072 2C22.1306 2 2 10.1675 2 20z"/>
		    <path class="st2" fill-rule="nonzero" d="M46.448 26.0047c.3153.4477.6593.8674 1.0606 1.2452H36.6874c0-.4198-.4156-1.2732-.8743-1.9447-.4586-.6716-2.9382-4.351-2.9382-4.351v5.0505c0 .4197 0 .8254.215 1.2452h-9.0152c.215-.4198.215-.8255.215-1.2452V14.0008c0-.4197 0-.8254-.215-1.2451h9.0152c-.215.4197-.215.8254-.215 1.2451v5.2465s2.8809-3.6655 3.5402-4.519c.5016-.6435 1.118-1.553 1.118-1.9726h9.4022c-.645.4197-1.3616 1.1752-1.9493 1.8747-.516.6156-3.4398 4.0992-3.4398 4.0992s4.3284 6.4497 4.9017 7.2751zm2.8378-12.0039v12.0039c0 .4197 0 .8254-.215 1.2452h17.3999v-4.0293c-.43.2098-.8457.2098-1.2756.2098h-7.324v-1.9027h7.0373v-3.05h-7.0373v-1.9166h7.324c.43 0 .8456 0 1.2756.1959v-4.0153H49.0708c.215.4337.215.8394.215 1.2591zm41.2924 12.0039c.1433.4617.387.8814.7023 1.2452h-9.4309c.043-.4198-.1146-.8255-.2866-1.2452 0 0-.1434-.3358-.344-.8254l-.086-.2099h-5.4321l-.086.2238s-.1577.4058-.301.8255c-.1433.4197-.301.8254-.2436 1.2451h-7.4387a3.6406 3.6406 0 0 0 .6737-1.2451l4.4574-12.0039c.1577-.4197.3153-.8254.258-1.2451h12.5697c-.1146.4197.1147.8254.2724 1.2451.3726.9094 4.4 11.1784 4.7154 11.9899zm-10.6348-4.0992-1.3186-3.3578c-.1147-.3077-.215-.6295-.2867-.9513a5.5011 5.5011 0 0 1-.258.9513c-.043.14-.602 1.609-1.247 3.3578h3.1103zm-60.1399-9.1498H10c.215.4197.215.8254.215 1.2451v12.0039c0 .4197 0 .8254-.215 1.2452h9.8035c-.215-.4198-.215-.8255-.215-1.2452V14.0008c0-.4197 0-.8254.215-1.2451zm67.7648 1.1472c-.043-1.0213.774-1.8747 1.8203-1.9027h.129c1.0606-.014 1.9349.7974 1.9492 1.8327v.07c.0287 1.0493-.817 1.9307-1.9062 1.9587-1.075.028-1.978-.7975-2.0066-1.8608.0143-.028.0143-.07.0143-.098zm.387 0c0 .8394.7023 1.525 1.5623 1.525s1.5622-.6856 1.5622-1.525c0-.8394-.7023-1.525-1.5622-1.525-.8313-.028-1.5336.6016-1.5623 1.413v.112zm1.1753 1.1332h-.344v-2.2944h.8743c.4157.014.731.3357.731.7415 0 .2798-.1577.5316-.4157.6715l.5017.8814h-.387l-.4587-.8114h-.5016v.8114zm0-1.1332h.473c.2293.014.43-.154.43-.3778 0-.2238-.1577-.4197-.387-.4197h-.516v.7975z"/>
		</g>
	</svg>

	<svg id="icon-play" viewBox="0 0 21 21">
		<style type="text/css">
			.st0{fill:#333;}
		</style>
		<path class="st0" d="M16.6,9.7L5.7,2.4C5,1.8,4,2.4,4,3.2v14.6c0,0.8,1,1.4,1.7,0.8l10.8-7.3C17.1,10.9,17.1,10.1,16.6,9.7"/>
	</svg>

	<svg id="icon-pause" viewBox="0 0 21 21">
		<style type="text/css">
			.st0{fill:#333;}
		</style>
		<path class="st0" d="M7.3,2.1H4.1C3.5,2.1,3,2.5,3,3.2V18C3,18.6,3.5,19,4.1,19h3.2c0.6,0,1.1-0.4,1.1-1.1V3.2C8.4,2.5,7.9,2.1,7.3,2.1 M13.7,2.1c-0.6,0-1.1,0.4-1.1,1.1V18c0,0.6,0.4,1.1,1.1,1.1h3.2c0.6,0,1.1-0.4,1.1-1.1V3.2c0-0.6-0.4-1.1-1.1-1.1H13.7z"/>
	</svg>

	<svg id="icon-forward" viewBox="0 0 21 21">
		<style type="text/css">
			.st0{fill:#333;}
		</style>
		<path class="st0" d="M19.8,8.1h-7l2.6-2.5c-1.3-1.3-3.1-2.1-5-2.1s-3.7,0.7-5,2.1c-1.3,1.3-2.1,3.1-2.1,5s0.7,3.7,2.1,5c1.3,1.3,3.1,2.1,5,2.1
			s3.7-0.7,5-2.1c0.1-0.1,0.2-0.2,0.3-0.3l1.8,1.5c-1.7,2-4.3,3.2-7.1,3.2C5.2,20,1,15.8,1,10.6s4.2-9.4,9.4-9.4
			c2.6,0,4.9,1.1,6.6,2.8l2.8-2.8V8.1z"/>
	</svg>

	<svg id="icon-rewind" viewBox="0 0 21 21">
		<style type="text/css">
			.st0{fill:#333;}
		</style>
		<path class="st0" d="M1,1.2l2.8,2.8c1.7-1.7,4.1-2.8,6.6-2.8c5.2,0,9.4,4.2,9.4,9.4S15.6,20,10.4,20c-2.8,0-5.4-1.2-7.1-3.2l1.8-1.5
			c0.1,0.1,0.2,0.2,0.3,0.3c1.3,1.3,3.1,2.1,5,2.1s3.7-0.7,5-2.1c1.3-1.3,2.1-3.1,2.1-5s-0.7-3.7-2.1-5c-1.3-1.3-3.1-2.1-5-2.1
			s-3.7,0.7-5,2.1l2.6,2.5H1V1.2z"/>
	</svg>

	<svg id="icon-restart" viewBox="0 0 21 21">
		<style type="text/css">
			.st0{fill:#333;}
		</style>
		<path class="st0" d="M11.3,2l0.8,7.3l2.4-2.4c2.2,2.2,2.2,5.8,0,8c-1,1.1-2.5,1.7-4,1.7s-3-0.6-4-1.7c-2.2-2.2-2.2-5.8,0-8 c0.7-0.7,1.6-1.3,2.6-1.5L8.5,3.3c-1.4,0.3-2.6,1-3.7,2.1c-3.1,3.1-3.1,8.1,0,11.3c1.5,1.5,3.6,2.3,5.6,2.3c2.2,0,4.1-0.8,5.6-2.3 c3.1-3.1,3.1-8.1,0-11.3l2.5-2.5L11.3,2z"/>
	</svg>

</svg>